<?xml version="1.0" encoding="UTF-8" standalone="no"?>
<!-- Created with Inkscape (http://www.inkscape.org/) -->

<svg
   width="300"
   height="300"
   viewBox="0 0 79.374998 79.375"
   version="1.1"
   id="svg1"
   sodipodi:docname="vdp.svg"
   inkscape:version="1.3.2 (1:1.3.2+202311252150+091e20ef0f)"
   inkscape:export-filename="../../icons/5200.png"
   inkscape:export-xdpi="96"
   inkscape:export-ydpi="96"
   xml:space="preserve"
   xmlns:inkscape="http://www.inkscape.org/namespaces/inkscape"
   xmlns:sodipodi="http://sodipodi.sourceforge.net/DTD/sodipodi-0.dtd"
   xmlns:xlink="http://www.w3.org/1999/xlink"
   xmlns="http://www.w3.org/2000/svg"
   xmlns:svg="http://www.w3.org/2000/svg"><sodipodi:namedview
     id="namedview1"
     pagecolor="#505050"
     bordercolor="#eeeeee"
     borderopacity="1"
     inkscape:showpageshadow="0"
     inkscape:pageopacity="0"
     inkscape:pagecheckerboard="0"
     inkscape:deskcolor="#505050"
     inkscape:document-units="mm"
     inkscape:zoom="1.5839366"
     inkscape:cx="172.35538"
     inkscape:cy="71.656908"
     inkscape:window-width="1920"
     inkscape:window-height="1131"
     inkscape:window-x="0"
     inkscape:window-y="0"
     inkscape:window-maximized="1"
     inkscape:current-layer="layer6"
     showguides="true"><sodipodi:guide
       position="23.505136,76.729168"
       orientation="0,-1"
       id="guide4"
       inkscape:locked="false" /><sodipodi:guide
       position="2.645832,58.232189"
       orientation="1,0"
       id="guide5"
       inkscape:locked="false" /><sodipodi:guide
       position="30.237762,2.6458321"
       orientation="0,-1"
       id="guide6"
       inkscape:locked="false" /><sodipodi:guide
       position="76.729166,25.513984"
       orientation="1,0"
       id="guide7"
       inkscape:locked="false" /></sodipodi:namedview><defs
     id="defs1">
		
		
	
	

			
			
				
			
			
			
			
			
			
			
			
			
			
			
			
			
			
		<linearGradient
   gradientTransform="matrix(1.6120767,0,0,1.6120767,-162.48057,-1311.6891)"
   gradientUnits="userSpaceOnUse"
   y2="889.505"
   x2="335"
   y1="838.07599"
   x1="336.42899"
   id="c"
   xlink:href="#b" /><linearGradient
   id="b"><stop
     offset="0"
     stop-color="red"
     id="stop1"
     style="stop-color:#0d0d26;stop-opacity:1;" /><stop
     offset="1"
     stop-color="#fc0"
     id="stop2" /></linearGradient></defs><g
     inkscape:groupmode="layer"
     id="layer6"
     inkscape:label="Square"><g
       id="g1"
       style="opacity:1"><rect
         style="opacity:1;fill:#cccccc;fill-opacity:1;stroke-width:0.600001;stroke-linecap:round;paint-order:markers stroke fill"
         id="rect1"
         width="79.375"
         height="79.375"
         x="0"
         y="0" /><path
         d="m 14.42122,71.258358 v 0.633897 q 0,1.129991 -0.282498,2.025715 -0.282497,0.895724 -0.813042,1.522731 -0.530544,0.627007 -1.274684,0.957736 -0.73725,0.330729 -1.653644,0.330729 -0.8888344,0 -1.6329744,-0.330729 Q 8.0271277,76.067708 7.4828031,75.440701 6.9453686,74.813694 6.6490906,73.91797 6.3528126,73.022246 6.3528126,71.892255 v -0.633897 q 0,-1.12999 0.2893878,-2.018824 0.296278,-0.895724 0.8337125,-1.522731 0.5374344,-0.633897 1.2746843,-0.964626 0.7441401,-0.330729 1.6329738,-0.330729 0.916395,0 1.653645,0.330729 0.74414,0.330729 1.274684,0.964626 0.537435,0.627007 0.819932,1.522731 0.289388,0.888834 0.289388,2.018824 z m -1.316025,0.633897 v -0.647677 q 0,-0.895724 -0.186035,-1.584743 -0.179145,-0.689018 -0.530545,-1.157551 -0.351399,-0.468533 -0.861273,-0.709689 -0.502984,-0.241157 -1.143771,-0.241157 -0.6201165,0 -1.1231,0.241157 -0.4960934,0.241156 -0.8543831,0.709689 -0.3513994,0.468533 -0.5443246,1.157551 -0.1929252,0.689019 -0.1929252,1.584743 v 0.647677 q 0,0.902615 0.1929252,1.598523 0.1929252,0.689019 0.5512148,1.164442 0.3651799,0.468532 0.8612732,0.709689 0.5029836,0.241156 1.1231007,0.241156 0.647677,0 1.150661,-0.241156 0.502983,-0.241157 0.847492,-0.709689 0.3514,-0.475423 0.530545,-1.164442 0.179145,-0.695908 0.179145,-1.598523 z m 6.015132,4.699107 h -2.094616 l 0.01378,-1.081759 h 2.080836 q 1.074869,0 1.791448,-0.447862 0.71658,-0.454752 1.074869,-1.267794 0.36518,-0.819932 0.36518,-1.915472 v -0.613227 q 0,-0.861273 -0.206705,-1.529621 -0.206706,-0.675238 -0.606337,-1.13688 -0.399631,-0.468533 -0.978406,-0.709689 -0.571886,-0.241157 -1.316026,-0.241157 h -2.259981 v -1.088649 h 2.259981 q 0.985297,0 1.798339,0.330729 0.813042,0.323838 1.398707,0.943955 0.592556,0.613227 0.909505,1.48828 0.316949,0.868164 0.316949,1.956813 v 0.599446 q 0,1.088649 -0.316949,1.963703 -0.316949,0.868163 -0.916395,1.48139 -0.592556,0.613226 -1.433158,0.943955 -0.833713,0.323839 -1.881021,0.323839 z M 17.7354,66.559252 v 10.03211 h -1.329806 v -10.03211 z m 8.095968,0 2.60449,5.036725 2.61138,-5.036725 h 1.508951 l -3.458873,6.283849 v 3.748261 H 27.76751 v -3.748261 l -3.458873,-6.283849 z m 13.249826,7.496522 q 0,-0.3514 -0.110243,-0.620117 -0.103352,-0.275607 -0.37207,-0.496093 -0.261827,-0.220486 -0.730359,-0.420302 -0.461643,-0.199815 -1.171332,-0.406521 -0.74414,-0.220486 -1.343586,-0.489203 -0.599446,-0.275607 -1.026638,-0.627007 -0.427191,-0.351399 -0.654567,-0.806151 -0.227377,-0.454753 -0.227377,-1.040418 0,-0.585666 0.241157,-1.08176 0.241156,-0.496093 0.689019,-0.861273 0.454752,-0.37207 1.081759,-0.578775 0.627007,-0.206706 1.398707,-0.206706 1.129991,0 1.915472,0.434082 0.792371,0.427191 1.205782,1.1231 0.413412,0.689019 0.413412,1.4745 h -1.322916 q 0,-0.564996 -0.241157,-0.999077 -0.241156,-0.440972 -0.730359,-0.689019 -0.489203,-0.254937 -1.240234,-0.254937 -0.709689,0 -1.171331,0.213596 -0.461643,0.213596 -0.689019,0.578776 -0.220486,0.36518 -0.220486,0.833712 0,0.316949 0.130914,0.578776 0.137804,0.254937 0.420301,0.475423 0.289388,0.220485 0.73036,0.40652 0.447862,0.186036 1.067979,0.35829 0.854383,0.241157 1.474499,0.537435 0.620117,0.296278 1.019748,0.668348 0.406521,0.365179 0.599446,0.833712 0.199815,0.461643 0.199815,1.047308 0,0.613227 -0.248046,1.10932 -0.248047,0.496094 -0.709689,0.847493 -0.461643,0.3514 -1.10932,0.544325 -0.640788,0.186035 -1.433159,0.186035 -0.695909,0 -1.371147,-0.192925 -0.668348,-0.192926 -1.219563,-0.578776 -0.544324,-0.38585 -0.875053,-0.950846 -0.323839,-0.571885 -0.323839,-1.322915 h 1.322916 q 0,0.516764 0.199815,0.888834 0.199815,0.365179 0.544325,0.606336 0.351399,0.241156 0.792371,0.35829 0.447862,0.110243 0.930175,0.110243 0.695909,0 1.178222,-0.192926 0.482313,-0.192925 0.730359,-0.551214 0.254937,-0.35829 0.254937,-0.847493 z m 8.378466,0 q 0,-0.3514 -0.110243,-0.620117 -0.103353,-0.275607 -0.37207,-0.496093 -0.261827,-0.220486 -0.73036,-0.420302 -0.461642,-0.199815 -1.171331,-0.406521 -0.74414,-0.220486 -1.343586,-0.489203 -0.599447,-0.275607 -1.026638,-0.627007 -0.427192,-0.351399 -0.654568,-0.806151 -0.227376,-0.454753 -0.227376,-1.040418 0,-0.585666 0.241157,-1.08176 0.241156,-0.496093 0.689018,-0.861273 0.454752,-0.37207 1.081759,-0.578775 0.627007,-0.206706 1.398708,-0.206706 1.12999,0 1.915472,0.434082 0.792371,0.427191 1.205782,1.1231 0.413411,0.689019 0.413411,1.4745 H 47.44588 q 0,-0.564996 -0.241157,-0.999077 -0.241156,-0.440972 -0.73036,-0.689019 -0.489203,-0.254937 -1.240233,-0.254937 -0.709689,0 -1.171332,0.213596 -0.461642,0.213596 -0.689018,0.578776 -0.220486,0.36518 -0.220486,0.833712 0,0.316949 0.130913,0.578776 0.137804,0.254937 0.420302,0.475423 0.289388,0.220485 0.73036,0.40652 0.447862,0.186036 1.067978,0.35829 0.854383,0.241157 1.4745,0.537435 0.620117,0.296278 1.019747,0.668348 0.406521,0.365179 0.599447,0.833712 0.199815,0.461643 0.199815,1.047308 0,0.613227 -0.248047,1.10932 -0.248046,0.496094 -0.709689,0.847493 -0.461642,0.3514 -1.10932,0.544325 -0.640787,0.186035 -1.433158,0.186035 -0.695909,0 -1.371147,-0.192925 -0.668348,-0.192926 -1.219563,-0.578776 -0.544325,-0.38585 -0.875054,-0.950846 -0.323838,-0.571885 -0.323838,-1.322915 h 1.322915 q 0,0.516764 0.199816,0.888834 0.199815,0.365179 0.544324,0.606336 0.3514,0.241156 0.792372,0.35829 0.447862,0.110243 0.930175,0.110243 0.695908,0 1.178221,-0.192926 0.482313,-0.192925 0.73036,-0.551214 0.254937,-0.35829 0.254937,-0.847493 z m 9.405105,1.453829 v 1.081759 h -5.312333 v -1.081759 z m -5.043616,-8.950351 v 10.03211 h -1.329806 v -10.03211 z m 4.340817,4.313256 v 1.081759 h -4.609534 v -1.081759 z m 0.633897,-4.313256 v 1.088649 h -5.243431 v -1.088649 z m 2.177295,0 2.60449,5.036725 2.611381,-5.036725 h 1.50895 l -3.458873,6.283849 v 3.748261 H 60.9093 v -3.748261 l -3.458873,-6.283849 z m 17.756009,8.984802 v 1.047308 H 70.16282 v -0.916395 l 3.286619,-3.658688 q 0.606336,-0.675238 0.937065,-1.143771 0.337619,-0.475423 0.468533,-0.847493 0.137803,-0.37896 0.137803,-0.771701 0,-0.496093 -0.206705,-0.895724 -0.199815,-0.406521 -0.592556,-0.647677 -0.392741,-0.241157 -0.950846,-0.241157 -0.668348,0 -1.11621,0.261827 -0.440972,0.254937 -0.661458,0.71658 -0.220486,0.461642 -0.220486,1.061088 h -1.274684 q 0,-0.847493 0.37207,-1.550292 0.37207,-0.702799 1.10243,-1.11621 0.73036,-0.420301 1.798338,-0.420301 0.950846,0 1.626084,0.337619 0.675238,0.330729 1.033528,0.937065 0.36518,0.599446 0.36518,1.405598 0,0.440972 -0.151584,0.895724 -0.144694,0.447862 -0.406521,0.895724 -0.254937,0.447863 -0.599446,0.881944 -0.337619,0.434082 -0.72347,0.854383 l -2.687172,2.914549 z"
         id="text1"
         style="font-size:14.1111px;line-height:1;font-family:Roboto;-inkscape-font-specification:Roboto;text-align:end;letter-spacing:0px;word-spacing:0px;text-anchor:end;fill:#0d0d26;stroke-linecap:square;stroke-dasharray:1, 3;stroke-opacity:0.5;paint-order:fill markers stroke"
         aria-label="ODYSSEY 2" /></g></g><g
     inkscape:label="artwork"
     inkscape:groupmode="layer"
     id="layer1" /></svg>
