<?xml version="1.0" encoding="UTF-8" standalone="no"?>
<!-- Created with Inkscape (http://www.inkscape.org/) -->

<svg
   width="300"
   height="300"
   viewBox="0 0 79.374998 79.375"
   version="1.1"
   id="svg1"
   sodipodi:docname="naomi.svg"
   inkscape:version="1.3.2 (1:1.3.2+202311252150+091e20ef0f)"
   inkscape:export-filename="../../icons/5200.png"
   inkscape:export-xdpi="96"
   inkscape:export-ydpi="96"
   xml:space="preserve"
   xmlns:inkscape="http://www.inkscape.org/namespaces/inkscape"
   xmlns:sodipodi="http://sodipodi.sourceforge.net/DTD/sodipodi-0.dtd"
   xmlns="http://www.w3.org/2000/svg"
   xmlns:svg="http://www.w3.org/2000/svg"><sodipodi:namedview
     id="namedview1"
     pagecolor="#505050"
     bordercolor="#eeeeee"
     borderopacity="1"
     inkscape:showpageshadow="0"
     inkscape:pageopacity="0"
     inkscape:pagecheckerboard="0"
     inkscape:deskcolor="#505050"
     inkscape:document-units="mm"
     inkscape:zoom="2.2400246"
     inkscape:cx="98.659631"
     inkscape:cy="156.91792"
     inkscape:window-width="1920"
     inkscape:window-height="1131"
     inkscape:window-x="0"
     inkscape:window-y="0"
     inkscape:window-maximized="1"
     inkscape:current-layer="g1"
     showguides="true"><sodipodi:guide
       position="23.505136,76.729168"
       orientation="0,-1"
       id="guide4"
       inkscape:locked="false" /><sodipodi:guide
       position="2.645832,58.232189"
       orientation="1,0"
       id="guide5"
       inkscape:locked="false" /><sodipodi:guide
       position="30.237762,2.6458321"
       orientation="0,-1"
       id="guide6"
       inkscape:locked="false" /><sodipodi:guide
       position="76.729166,25.513984"
       orientation="1,0"
       id="guide7"
       inkscape:locked="false" /></sodipodi:namedview><defs
     id="defs1">
		
		
	
	

			
			
				
			
			
			
			
			
			
			
			
			
			
			
			
			
			
		</defs><g
     inkscape:groupmode="layer"
     id="layer5"
     inkscape:label="palette"
     sodipodi:insensitive="true"><rect
       style="fill:#35a52f;fill-opacity:1;stroke-width:0.600001;stroke-linecap:round;paint-order:markers stroke fill"
       id="rect2"
       width="39.666763"
       height="39.666763"
       x="79.375"
       y="-48.294159" /><rect
       style="fill:#edb111;fill-opacity:1;stroke-width:0.600001;stroke-linecap:round;paint-order:markers stroke fill"
       id="rect2-2"
       width="39.666763"
       height="39.666763"
       x="127.71326"
       y="-48.294159" /><rect
       style="fill:#7761ab;fill-opacity:1;stroke-width:0.600001;stroke-linecap:round;paint-order:markers stroke fill"
       id="rect2-2-7"
       width="39.666763"
       height="39.666763"
       x="176.05151"
       y="-48.294159" /><rect
       style="fill:#f8f4f2;fill-opacity:1;stroke-width:0.600001;stroke-linecap:round;paint-order:markers stroke fill"
       id="rect2-2-7-6"
       width="39.666763"
       height="39.666763"
       x="224.38977"
       y="-48.294159" /><rect
       style="fill:#006fcd;fill-opacity:1;stroke-width:0.600001;stroke-linecap:round;paint-order:markers stroke fill"
       id="rect2-2-7-6-7"
       width="39.666763"
       height="39.666763"
       x="272.72797"
       y="-48.294159" /><rect
       style="fill:#b1b3b3;fill-opacity:1;stroke-width:0.600001;stroke-linecap:round;paint-order:markers stroke fill"
       id="rect2-2-7-6-7-4"
       width="39.666763"
       height="39.666763"
       x="321.06622"
       y="-48.294159" /><rect
       style="fill:#323434;fill-opacity:1;stroke-width:0.600001;stroke-linecap:round;paint-order:markers stroke fill"
       id="rect2-2-7-6-7-4-0"
       width="39.666763"
       height="39.666763"
       x="369.40448"
       y="-48.294159" /><text
       xml:space="preserve"
       style="font-size:8.46667px;line-height:1.6;font-family:Roboto;-inkscape-font-specification:Roboto;text-decoration-color:#000000;letter-spacing:0px;word-spacing:0px;fill:#808080;stroke-width:0.600001;stroke-linecap:round;paint-order:markers stroke fill"
       x="99.243523"
       y="-1.7652676"
       id="text2"><tspan
         sodipodi:role="line"
         id="tspan2"
         style="text-align:center;text-anchor:middle;stroke-width:0.6"
         x="99.243523"
         y="-1.7652676">GB green</tspan></text><text
       xml:space="preserve"
       style="font-size:8.46667px;line-height:1.6;font-family:Roboto;-inkscape-font-specification:Roboto;text-align:center;text-decoration-color:#000000;letter-spacing:0px;word-spacing:0px;text-anchor:middle;fill:#808080;stroke-width:0.600001;stroke-linecap:round;paint-order:markers stroke fill"
       x="147.39368"
       y="-1.7652676"
       id="text2-1"><tspan
         sodipodi:role="line"
         id="tspan2-8"
         style="text-align:center;text-anchor:middle;stroke-width:0.6"
         x="147.39368"
         y="-1.7652676">GBC Yellow</tspan></text><text
       xml:space="preserve"
       style="font-size:8.46667px;line-height:1.6;font-family:Roboto;-inkscape-font-specification:Roboto;text-align:center;text-decoration-color:#000000;letter-spacing:0px;word-spacing:0px;text-anchor:middle;fill:#808080;stroke-width:0.600001;stroke-linecap:round;paint-order:markers stroke fill"
       x="195.73193"
       y="-1.7652676"
       id="text2-1-0"><tspan
         sodipodi:role="line"
         id="tspan2-8-2"
         style="text-align:center;text-anchor:middle;stroke-width:0.6"
         x="195.73193"
         y="-1.7652676">GBA Purple</tspan></text><text
       xml:space="preserve"
       style="font-size:8.46667px;line-height:1.6;font-family:Roboto;-inkscape-font-specification:Roboto;text-align:center;text-decoration-color:#000000;letter-spacing:0px;word-spacing:0px;text-anchor:middle;fill:#808080;stroke-width:0.600001;stroke-linecap:round;paint-order:markers stroke fill"
       x="243.74771"
       y="-1.7652676"
       id="text2-1-0-9"><tspan
         sodipodi:role="line"
         id="tspan2-8-2-2"
         style="text-align:center;text-anchor:middle;stroke-width:0.6"
         x="243.74771"
         y="-1.7652676">DS White</tspan></text><text
       xml:space="preserve"
       style="font-size:8.46667px;line-height:1.6;font-family:Roboto;-inkscape-font-specification:Roboto;text-align:center;text-decoration-color:#000000;letter-spacing:0px;word-spacing:0px;text-anchor:middle;fill:#808080;stroke-width:0.600001;stroke-linecap:round;paint-order:markers stroke fill"
       x="292.36707"
       y="-1.7652676"
       id="text2-1-0-9-2"><tspan
         sodipodi:role="line"
         id="tspan2-8-2-2-9"
         style="text-align:center;text-anchor:middle;stroke-width:0.6"
         x="292.36707"
         y="-1.7652676">PSP Blue</tspan></text><text
       xml:space="preserve"
       style="font-size:8.46667px;line-height:1.6;font-family:Roboto;-inkscape-font-specification:Roboto;text-align:center;text-decoration-color:#000000;letter-spacing:0px;word-spacing:0px;text-anchor:middle;fill:#808080;stroke-width:0.600001;stroke-linecap:round;paint-order:markers stroke fill"
       x="340.70532"
       y="-1.682586"
       id="text2-1-0-9-2-5"><tspan
         sodipodi:role="line"
         id="tspan2-8-2-2-9-0"
         style="text-align:center;text-anchor:middle;stroke-width:0.6"
         x="340.70532"
         y="-1.682586">PS Grey</tspan></text><text
       xml:space="preserve"
       style="font-size:8.46667px;line-height:1.6;font-family:Roboto;-inkscape-font-specification:Roboto;text-align:center;text-decoration-color:#000000;letter-spacing:0px;word-spacing:0px;text-anchor:middle;fill:#808080;stroke-width:0.600001;stroke-linecap:round;paint-order:markers stroke fill"
       x="388.94019"
       y="-1.682586"
       id="text2-1-0-9-2-5-8"><tspan
         sodipodi:role="line"
         id="tspan2-8-2-2-9-0-8"
         style="text-align:center;text-anchor:middle;stroke-width:0.6"
         x="388.94019"
         y="-1.682586">Default grey</tspan></text></g><g
     inkscape:groupmode="layer"
     id="layer6"
     inkscape:label="Square"><g
       id="g1"
       style="opacity:1"><rect
         style="opacity:1;fill:#cccccc;fill-opacity:1;stroke-width:0.600001;stroke-linecap:round;paint-order:markers stroke fill"
         id="rect1"
         width="79.375"
         height="79.375"
         x="0"
         y="0" /><g
         id="g14"
         transform="translate(0,16.366067)"
         style="fill:#0d0d26;fill-opacity:1"><path
           style="fill:#0d0d26;fill-opacity:1"
           d="m 19.633315,30.121682 c 0.08995,-0.173695 0.474098,-0.841656 0.85367,-1.484358 l 0.690129,-1.168548 -0.06598,-0.06598 c -0.03629,-0.03629 -0.393275,-0.06598 -0.793301,-0.06598 h -0.727319 v -0.972495 -0.972495 l 1.332156,-0.03235 1.332157,-0.03235 2.413105,-4.391952 2.413105,-4.391953 3.834175,6.893554 c 2.108795,3.791455 3.834174,6.917668 3.834174,6.947141 0,0.02947 -0.592006,0.05359 -1.315568,0.05359 H 32.11825 l -0.81824,-1.550339 -0.81824,-1.550339 h -3.425016 -3.425015 l -0.838346,1.550339 -0.838345,1.550339 h -1.242636 -1.242637 z m 9.833432,-4.928564 c 0,-0.131323 -2.349871,-4.40218 -2.422126,-4.40218 -0.03763,0 -0.411261,0.633055 -0.830297,1.406789 -0.419036,0.773734 -0.967995,1.781454 -1.219909,2.239379 l -0.458025,0.832589 h 2.465179 2.465178 z m 22.738308,-1.646022 c 0,-3.789718 0.01933,-6.890396 0.04296,-6.890396 0.02363,0 0.44997,0.476682 0.947429,1.059294 0.497459,0.582612 2.205065,2.570396 3.794682,4.417299 l 2.890211,3.358005 3.856635,-4.538181 3.856635,-4.538182 v 7.015296 7.015296 l -1.177109,-0.03273 -1.17711,-0.03273 -0.05742,-3.770799 -0.05742,-3.770798 -0.243029,0.3256 c -0.536555,0.718854 -5.013448,6.066118 -5.061776,6.045857 -0.02852,-0.01196 -1.214289,-1.407262 -2.635039,-3.100678 -1.42075,-1.693416 -2.631446,-3.096164 -2.690436,-3.117218 l -0.107254,-0.03828 v 3.741868 3.741868 h -1.090979 -1.09098 z m 19.792086,5.321899 c 0.04137,-0.862673 0.07522,-4.066707 0.07522,-7.120075 v -5.55158 h 1.090979 1.09098 v 7.120076 7.120076 h -1.1662 -1.166203 z M 5.1206802,23.489676 c 0,-3.758137 0.027841,-6.832976 0.061868,-6.832976 0.034028,0 2.3982948,1.933792 5.2539278,4.297315 l 5.192059,4.297314 0.03006,-4.412154 0.03006,-4.412155 h 1.147051 1.14705 v 6.832976 6.832976 l -0.08613,-0.0036 c -0.04737,-0.002 -2.489155,-1.963684 -5.426187,-4.359377 l -5.3400599,-4.355778 -0.030043,4.474217 -0.030043,4.474218 H 6.0954867 5.1206802 Z"
           id="path1" /><path
           id="path13"
           style="opacity:1;fill:#0d0d26;fill-opacity:1;stroke-width:2.05568;stroke-linecap:square;paint-order:markers stroke fill"
           d="m 42.445988,15.710528 a 7.6107011,7.6107011 0 0 0 -7.610905,7.610905 7.6107011,7.6107011 0 0 0 7.610905,7.610905 7.6107011,7.6107011 0 0 0 7.610905,-7.610905 7.6107011,7.6107011 0 0 0 -7.610905,-7.610905 z m 0,2.380216 a 5.2306123,5.2306123 0 0 1 5.230688,5.230689 5.2306123,5.2306123 0 0 1 -5.230688,5.230689 5.2306123,5.2306123 0 0 1 -5.230689,-5.230689 5.2306123,5.2306123 0 0 1 5.230689,-5.230689 z" /></g></g></g><g
     inkscape:label="artwork"
     inkscape:groupmode="layer"
     id="layer1" /></svg>
