<?xml version="1.0" encoding="UTF-8" standalone="no"?>
<!-- Created with Inkscape (http://www.inkscape.org/) -->

<svg
   width="300"
   height="300"
   viewBox="0 0 79.374998 79.375"
   version="1.1"
   id="svg1"
   sodipodi:docname="vectrex.svg"
   inkscape:version="1.3.2 (1:1.3.2+202311252150+091e20ef0f)"
   inkscape:export-filename="../../icons/5200.png"
   inkscape:export-xdpi="96"
   inkscape:export-ydpi="96"
   xml:space="preserve"
   xmlns:inkscape="http://www.inkscape.org/namespaces/inkscape"
   xmlns:sodipodi="http://sodipodi.sourceforge.net/DTD/sodipodi-0.dtd"
   xmlns="http://www.w3.org/2000/svg"
   xmlns:svg="http://www.w3.org/2000/svg"><sodipodi:namedview
     id="namedview1"
     pagecolor="#505050"
     bordercolor="#eeeeee"
     borderopacity="1"
     inkscape:showpageshadow="0"
     inkscape:pageopacity="0"
     inkscape:pagecheckerboard="0"
     inkscape:deskcolor="#505050"
     inkscape:document-units="mm"
     inkscape:zoom="1.5839366"
     inkscape:cx="275.26354"
     inkscape:cy="120.9013"
     inkscape:window-width="1920"
     inkscape:window-height="1131"
     inkscape:window-x="0"
     inkscape:window-y="0"
     inkscape:window-maximized="1"
     inkscape:current-layer="g1"
     showguides="true"><sodipodi:guide
       position="23.505136,76.729168"
       orientation="0,-1"
       id="guide4"
       inkscape:locked="false" /><sodipodi:guide
       position="2.645832,58.232189"
       orientation="1,0"
       id="guide5"
       inkscape:locked="false" /><sodipodi:guide
       position="30.237762,2.6458321"
       orientation="0,-1"
       id="guide6"
       inkscape:locked="false" /><sodipodi:guide
       position="76.729166,25.513984"
       orientation="1,0"
       id="guide7"
       inkscape:locked="false" /></sodipodi:namedview><defs
     id="defs1">
		
		
	
	

			
			
				
			
			
			
			
			
			
			
			
			
			
			
			
			
			
		</defs><g
     inkscape:groupmode="layer"
     id="layer5"
     inkscape:label="palette"
     sodipodi:insensitive="true"><rect
       style="fill:#35a52f;fill-opacity:1;stroke-width:0.600001;stroke-linecap:round;paint-order:markers stroke fill"
       id="rect2"
       width="39.666763"
       height="39.666763"
       x="79.375"
       y="-48.294159" /><rect
       style="fill:#edb111;fill-opacity:1;stroke-width:0.600001;stroke-linecap:round;paint-order:markers stroke fill"
       id="rect2-2"
       width="39.666763"
       height="39.666763"
       x="127.71326"
       y="-48.294159" /><rect
       style="fill:#7761ab;fill-opacity:1;stroke-width:0.600001;stroke-linecap:round;paint-order:markers stroke fill"
       id="rect2-2-7"
       width="39.666763"
       height="39.666763"
       x="176.05151"
       y="-48.294159" /><rect
       style="fill:#f8f4f2;fill-opacity:1;stroke-width:0.600001;stroke-linecap:round;paint-order:markers stroke fill"
       id="rect2-2-7-6"
       width="39.666763"
       height="39.666763"
       x="224.38977"
       y="-48.294159" /><rect
       style="fill:#006fcd;fill-opacity:1;stroke-width:0.600001;stroke-linecap:round;paint-order:markers stroke fill"
       id="rect2-2-7-6-7"
       width="39.666763"
       height="39.666763"
       x="272.72797"
       y="-48.294159" /><rect
       style="fill:#b1b3b3;fill-opacity:1;stroke-width:0.600001;stroke-linecap:round;paint-order:markers stroke fill"
       id="rect2-2-7-6-7-4"
       width="39.666763"
       height="39.666763"
       x="321.06622"
       y="-48.294159" /><rect
       style="fill:#323434;fill-opacity:1;stroke-width:0.600001;stroke-linecap:round;paint-order:markers stroke fill"
       id="rect2-2-7-6-7-4-0"
       width="39.666763"
       height="39.666763"
       x="369.40448"
       y="-48.294159" /><text
       xml:space="preserve"
       style="font-size:8.46667px;line-height:1.6;font-family:Roboto;-inkscape-font-specification:Roboto;text-decoration-color:#000000;letter-spacing:0px;word-spacing:0px;fill:#808080;stroke-width:0.600001;stroke-linecap:round;paint-order:markers stroke fill"
       x="99.243523"
       y="-1.7652676"
       id="text2"><tspan
         sodipodi:role="line"
         id="tspan2"
         style="text-align:center;text-anchor:middle;stroke-width:0.6"
         x="99.243523"
         y="-1.7652676">GB green</tspan></text><text
       xml:space="preserve"
       style="font-size:8.46667px;line-height:1.6;font-family:Roboto;-inkscape-font-specification:Roboto;text-align:center;text-decoration-color:#000000;letter-spacing:0px;word-spacing:0px;text-anchor:middle;fill:#808080;stroke-width:0.600001;stroke-linecap:round;paint-order:markers stroke fill"
       x="147.39368"
       y="-1.7652676"
       id="text2-1"><tspan
         sodipodi:role="line"
         id="tspan2-8"
         style="text-align:center;text-anchor:middle;stroke-width:0.6"
         x="147.39368"
         y="-1.7652676">GBC Yellow</tspan></text><text
       xml:space="preserve"
       style="font-size:8.46667px;line-height:1.6;font-family:Roboto;-inkscape-font-specification:Roboto;text-align:center;text-decoration-color:#000000;letter-spacing:0px;word-spacing:0px;text-anchor:middle;fill:#808080;stroke-width:0.600001;stroke-linecap:round;paint-order:markers stroke fill"
       x="195.73193"
       y="-1.7652676"
       id="text2-1-0"><tspan
         sodipodi:role="line"
         id="tspan2-8-2"
         style="text-align:center;text-anchor:middle;stroke-width:0.6"
         x="195.73193"
         y="-1.7652676">GBA Purple</tspan></text><text
       xml:space="preserve"
       style="font-size:8.46667px;line-height:1.6;font-family:Roboto;-inkscape-font-specification:Roboto;text-align:center;text-decoration-color:#000000;letter-spacing:0px;word-spacing:0px;text-anchor:middle;fill:#808080;stroke-width:0.600001;stroke-linecap:round;paint-order:markers stroke fill"
       x="243.74771"
       y="-1.7652676"
       id="text2-1-0-9"><tspan
         sodipodi:role="line"
         id="tspan2-8-2-2"
         style="text-align:center;text-anchor:middle;stroke-width:0.6"
         x="243.74771"
         y="-1.7652676">DS White</tspan></text><text
       xml:space="preserve"
       style="font-size:8.46667px;line-height:1.6;font-family:Roboto;-inkscape-font-specification:Roboto;text-align:center;text-decoration-color:#000000;letter-spacing:0px;word-spacing:0px;text-anchor:middle;fill:#808080;stroke-width:0.600001;stroke-linecap:round;paint-order:markers stroke fill"
       x="292.36707"
       y="-1.7652676"
       id="text2-1-0-9-2"><tspan
         sodipodi:role="line"
         id="tspan2-8-2-2-9"
         style="text-align:center;text-anchor:middle;stroke-width:0.6"
         x="292.36707"
         y="-1.7652676">PSP Blue</tspan></text><text
       xml:space="preserve"
       style="font-size:8.46667px;line-height:1.6;font-family:Roboto;-inkscape-font-specification:Roboto;text-align:center;text-decoration-color:#000000;letter-spacing:0px;word-spacing:0px;text-anchor:middle;fill:#808080;stroke-width:0.600001;stroke-linecap:round;paint-order:markers stroke fill"
       x="340.70532"
       y="-1.682586"
       id="text2-1-0-9-2-5"><tspan
         sodipodi:role="line"
         id="tspan2-8-2-2-9-0"
         style="text-align:center;text-anchor:middle;stroke-width:0.6"
         x="340.70532"
         y="-1.682586">PS Grey</tspan></text><text
       xml:space="preserve"
       style="font-size:8.46667px;line-height:1.6;font-family:Roboto;-inkscape-font-specification:Roboto;text-align:center;text-decoration-color:#000000;letter-spacing:0px;word-spacing:0px;text-anchor:middle;fill:#808080;stroke-width:0.600001;stroke-linecap:round;paint-order:markers stroke fill"
       x="388.94019"
       y="-1.682586"
       id="text2-1-0-9-2-5-8"><tspan
         sodipodi:role="line"
         id="tspan2-8-2-2-9-0-8"
         style="text-align:center;text-anchor:middle;stroke-width:0.6"
         x="388.94019"
         y="-1.682586">Default grey</tspan></text></g><g
     inkscape:groupmode="layer"
     id="layer6"
     inkscape:label="Square"><g
       id="g1"
       style="opacity:1"><rect
         style="opacity:1;fill:#cccccc;fill-opacity:1;stroke-width:0.600001;stroke-linecap:round;paint-order:markers stroke fill"
         id="rect1"
         width="79.375"
         height="79.375"
         x="0"
         y="0" /><g
         id="g6"
         transform="matrix(0.01929756,0,0,0.01929756,2.645832,30.03486)"
         style="fill:#0d0d26;fill-opacity:1">
	<path
   class="st0"
   d="m 2638,471.5 -148,169.1 c -8.2,9.4 -22.4,10.3 -31.8,2.1 -9.4,-8.2 -10.3,-22.4 -2.1,-31.8 l 122.1,-139.5 h -8.8 -111.1 -68.4 v 514.4 h 179.5 V 651 h 110.7 l 158.4,-179.5 z"
   id="path1"
   style="fill:#0d0d26;fill-opacity:1" />
	<path
   class="st0"
   d="m 3270,722.1 c 0,-55.3 -16.8,-106.8 -45.5,-149.5 L 3062,758.1 3052.5,769 h -0.1 c -12.6,13.6 -30.6,22.1 -50.5,22.1 -8.7,0 -16.9,-1.6 -24.6,-4.5 l 85.2,-97.3 v 0 l 133.3,-152.2 c -48.8,-51.1 -117.6,-83 -193.9,-83 -148.1,0 -268.1,120 -268.1,268.1 0,148.1 120,268.1 268.1,268.1 C 3150,990.1 3270,870.1 3270,722.1 Z m -337,0 c 0,-38.1 30.9,-69 69,-69 9.7,0 19,2 27.4,5.7 l -86.5,98.8 c -6.3,-10.4 -9.9,-22.5 -9.9,-35.5 z"
   id="path2"
   style="fill:#0d0d26;fill-opacity:1" />
	<path
   class="st0"
   d="m 1311.4,758.1 -9.5,10.9 h -0.1 c -12.6,13.6 -30.6,22.1 -50.5,22.1 -8.7,0 -16.9,-1.6 -24.6,-4.5 l 85.2,-97.3 v 0 l 133.3,-152.2 c -48.8,-51.1 -117.6,-83 -193.9,-83 -148.1,0 -268.1,120 -268.1,268.1 0,148.1 120,268.1 268.1,268.1 148.1,0 268.1,-120 268.1,-268.1 0,-55.3 -16.8,-106.8 -45.5,-149.5 z m -129.1,-36 c 0,-38.1 30.9,-69 69,-69 9.7,0 19,2 27.4,5.7 l -86.5,98.8 c -6.3,-10.4 -9.9,-22.5 -9.9,-35.5 z"
   id="path3"
   style="fill:#0d0d26;fill-opacity:1" />
	<path
   class="st0"
   d="M 2291.2,292 V 0 l -406.1,465 c -24.1,-7.1 -49.7,-11 -76.2,-11 -148.1,0 -268.1,120 -268.1,268.1 0,148.1 120,268.1 268.1,268.1 148.1,0 268.1,-120 268.1,-268.1 0,-55.3 -16.8,-106.8 -45.5,-149.5 L 1869,758.1 1859.5,769 h -0.1 c -12.6,13.6 -30.6,22.1 -50.5,22.1 -38.1,0 -69,-30.9 -69,-69 0,-38.1 30.9,-69 69,-69 26.2,0 49,14.6 60.6,36.1 L 2002.8,537 c -27.3,-28.6 -60.8,-51.1 -98.4,-65.5 h 155.7 l 110.3,-126 c 8.2,-9.4 22.4,-10.3 31.8,-2.1 v 0 c 9.4,8.2 10.3,22.4 2.1,31.8 l -84.3,96.3 v 0 l -9.1,10.4 v 503.9 h 179.5 V 471.5 h 99.5 L 2548.3,292 Z"
   id="path4"
   style="fill:#0d0d26;fill-opacity:1" />
	<path
   class="st0"
   d="m 3839,471.5 h -209.8 l -148.1,169.1 c -8.2,9.4 -22.4,10.3 -31.8,2.1 -9.4,-8.2 -10.3,-22.4 -2.1,-31.8 L 3569.3,471.4 H 3176.5 L 3402.9,730 3179,985.8 h 209.8 l 145.6,-166.3 c 8.2,-9.4 22.4,-10.3 31.8,-2.1 9.4,8.2 10.3,22.4 2.1,31.8 l -119.7,136.7 h 388 L 3612.6,730 Z"
   id="path5"
   style="fill:#0d0d26;fill-opacity:1" />
	<path
   class="st1"
   d="m 942.6,292 -347,396.3 c -11.9,13.6 -32.5,14.9 -46.1,3.1 -13.6,-11.9 -14.9,-32.5 -3.1,-46.1 L 855.8,292 H 0 L 620.1,1000.4 1240.3,292 Z"
   id="path6"
   style="fill:#0d0d26;fill-opacity:1" />
</g></g></g><g
     inkscape:label="artwork"
     inkscape:groupmode="layer"
     id="layer1" /></svg>
