<?xml version="1.0" encoding="UTF-8" standalone="no"?>
<!-- Created with Inkscape (http://www.inkscape.org/) -->

<svg
   width="300"
   height="300"
   viewBox="0 0 79.374998 79.375"
   version="1.1"
   id="svg1"
   sodipodi:docname="scummvm.svg"
   inkscape:version="1.3.2 (1:1.3.2+202311252150+091e20ef0f)"
   inkscape:export-filename="../../icons/5200.png"
   inkscape:export-xdpi="96"
   inkscape:export-ydpi="96"
   xml:space="preserve"
   xmlns:inkscape="http://www.inkscape.org/namespaces/inkscape"
   xmlns:sodipodi="http://sodipodi.sourceforge.net/DTD/sodipodi-0.dtd"
   xmlns="http://www.w3.org/2000/svg"
   xmlns:svg="http://www.w3.org/2000/svg"><sodipodi:namedview
     id="namedview1"
     pagecolor="#505050"
     bordercolor="#eeeeee"
     borderopacity="1"
     inkscape:showpageshadow="0"
     inkscape:pageopacity="0"
     inkscape:pagecheckerboard="0"
     inkscape:deskcolor="#505050"
     inkscape:document-units="mm"
     inkscape:zoom="2.2400246"
     inkscape:cx="38.392436"
     inkscape:cy="163.16785"
     inkscape:window-width="1920"
     inkscape:window-height="1131"
     inkscape:window-x="0"
     inkscape:window-y="0"
     inkscape:window-maximized="1"
     inkscape:current-layer="layer6"
     showguides="true"><sodipodi:guide
       position="23.505136,76.729168"
       orientation="0,-1"
       id="guide4"
       inkscape:locked="false" /><sodipodi:guide
       position="2.645832,58.232189"
       orientation="1,0"
       id="guide5"
       inkscape:locked="false" /><sodipodi:guide
       position="30.237762,2.6458321"
       orientation="0,-1"
       id="guide6"
       inkscape:locked="false" /><sodipodi:guide
       position="76.729166,25.513984"
       orientation="1,0"
       id="guide7"
       inkscape:locked="false" /></sodipodi:namedview><defs
     id="defs1">
		
		
	
	

			
			
				
			
			
			
			
			
			
			
			
			
			
			
			
			
			
		<clipPath
   id="clipPath26"
   clipPathUnits="userSpaceOnUse"><path
     id="path24"
     d="M 67.6882,496.462 H 454.312 V 5.53825 H 67.6882 Z" /></clipPath><clipPath
   id="clipPath30"
   clipPathUnits="userSpaceOnUse"><path
     id="path28"
     d="m 378.203,342.284 v -17.365 c -1.971,-2.991 -5.035,-4.559 -8.182,-4.559 -2.27,0 -4.584,0.817 -6.56,2.503 -0.426,0.363 -8.514,7.25 -17.937,13.242 -9.423,5.974 -18.657,11.079 -27.684,15.333 -9.036,4.237 -17.478,7.428 -25.335,9.546 -7.857,2.118 -14.724,3.191 -20.61,3.191 -7.074,0 -12.285,-1.738 -15.615,-5.212 -3.339,-3.474 -5.004,-7.906 -5.004,-13.313 v 17.365 c 0,5.407 1.665,9.839 5.004,13.313 3.33,3.474 8.541,5.212 15.615,5.212 5.886,0 12.753,-1.073 20.61,-3.191 7.857,-2.119 16.299,-5.309 25.335,-9.546 9.027,-4.254 18.261,-9.36 27.684,-15.333 9.423,-5.992 17.511,-12.88 17.937,-13.242 1.976,-1.686 4.29,-2.503 6.56,-2.503 3.147,0 6.211,1.568 8.182,4.559" /></clipPath><clipPath
   id="clipPath34"
   clipPathUnits="userSpaceOnUse"><path
     id="path32"
     d="m 287.807,166.773 v -17.364 c 0,7.33 -4.041,14.27 -12.078,20.837 -8.055,6.56 -18.072,13.401 -30.051,20.555 -11.979,7.135 -24.939,14.845 -38.88,23.159 -13.986,8.332 -27.027,18.125 -38.871,29.223 -11.988,11.185 -21.996,24.027 -30.051,38.492 -8.046,14.474 -12.069,31.164 -12.069,50.078 v 17.365 c 0,-18.914 4.023,-35.604 12.069,-50.078 8.055,-14.465 18.063,-27.308 30.051,-38.493 11.844,-11.097 24.885,-20.891 38.871,-29.222 13.941,-8.314 26.901,-16.025 38.88,-23.16 11.979,-7.152 21.996,-13.995 30.051,-20.554 8.037,-6.567 12.078,-13.507 12.078,-20.838" /></clipPath><clipPath
   id="clipPath38"
   clipPathUnits="userSpaceOnUse"><path
     id="path36"
     d="m 414.455,178.935 v -17.366 c 0,-20.838 -4.419,-38.882 -13.257,-54.119 -8.838,-15.254 -20.322,-27.786 -34.461,-37.634 -14.13,-9.837 -30.15,-17.168 -48.006,-21.998 -17.874,-4.813 -35.847,-7.232 -53.901,-7.232 -36.135,0 -66.474,6.567 -91.017,19.676 C 149.27,73.38 127.184,93.26 107.546,119.886 V 137.25 C 127.184,110.625 149.27,90.744 173.813,77.627 198.356,64.519 228.695,57.95 264.83,57.95 c 18.054,0 36.027,2.42 53.901,7.233 17.856,4.831 33.876,12.161 48.006,21.999 14.139,9.846 25.623,22.38 34.461,37.633 8.838,15.236 13.257,33.282 13.257,54.12" /></clipPath><clipPath
   id="clipPath110"
   clipPathUnits="userSpaceOnUse"><path
     id="path108"
     d="M 102.546,386.54 H 409.455 V 45.5856 H 102.546 Z" /></clipPath><clipPath
   id="clipPath114"
   clipPathUnits="userSpaceOnUse"><path
     id="path112"
     d="M 246.276,386.54 H 373.203 V 325.36 H 246.276 Z" /></clipPath><clipPath
   id="clipPath118"
   clipPathUnits="userSpaceOnUse"><path
     id="path116"
     d="m 120.807,354.118 h 162 V 154.409 h -162 z" /></clipPath><clipPath
   id="clipPath122"
   clipPathUnits="userSpaceOnUse"><path
     id="path120"
     d="M 102.546,183.934 H 409.455 V 45.5856 H 102.546 Z" /></clipPath><clipPath
   id="clipPath162"
   clipPathUnits="userSpaceOnUse"><path
     id="path160"
     d="M 102.546,466.415 H 409.455 V 45.5856 H 102.546 Z" /></clipPath><clipPath
   id="clipPath166"
   clipPathUnits="userSpaceOnUse"><path
     id="path164"
     d="M 246.276,386.54 H 373.203 V 325.36 H 246.276 Z" /></clipPath><clipPath
   id="clipPath170"
   clipPathUnits="userSpaceOnUse"><path
     id="path168"
     d="m 373.203,347.284 v -17.365 c -1.971,-2.991 -5.035,-4.559 -8.182,-4.559 -2.27,0 -4.584,0.817 -6.56,2.503 -0.426,0.363 -8.514,7.25 -17.937,13.242 -9.423,5.974 -18.657,11.079 -27.684,15.333 -9.036,4.237 -17.478,7.428 -25.335,9.546 -7.857,2.118 -14.724,3.191 -20.61,3.191 -7.074,0 -12.285,-1.738 -15.615,-5.212 -3.339,-3.474 -5.004,-7.906 -5.004,-13.313 v 17.365 c 0,5.407 1.665,9.839 5.004,13.313 3.33,3.474 8.541,5.212 15.615,5.212 5.886,0 12.753,-1.073 20.61,-3.191 7.857,-2.119 16.299,-5.309 25.335,-9.546 9.027,-4.254 18.261,-9.36 27.684,-15.333 9.423,-5.992 17.511,-12.88 17.937,-13.242 1.976,-1.686 4.29,-2.503 6.56,-2.503 3.147,0 6.211,1.568 8.182,4.559" /></clipPath><clipPath
   id="clipPath174"
   clipPathUnits="userSpaceOnUse"><path
     id="path172"
     d="M 246.276,386.54 H 373.203 V 325.36 H 246.276 Z" /></clipPath><clipPath
   id="clipPath178"
   clipPathUnits="userSpaceOnUse"><path
     id="path176"
     d="m 120.807,354.118 h 162 V 154.409 h -162 z" /></clipPath><clipPath
   id="clipPath182"
   clipPathUnits="userSpaceOnUse"><path
     id="path180"
     d="m 282.807,171.773 v -17.364 c 0,7.33 -4.041,14.27 -12.078,20.837 -8.055,6.56 -18.072,13.401 -30.051,20.555 -11.979,7.135 -24.939,14.845 -38.88,23.159 -13.986,8.332 -27.027,18.125 -38.871,29.223 -11.988,11.185 -21.996,24.027 -30.051,38.492 -8.046,14.474 -12.069,31.164 -12.069,50.078 v 17.365 c 0,-18.914 4.023,-35.604 12.069,-50.078 8.055,-14.465 18.063,-27.308 30.051,-38.493 11.844,-11.097 24.885,-20.891 38.871,-29.222 13.941,-8.314 26.901,-16.025 38.88,-23.16 11.979,-7.152 21.996,-13.995 30.051,-20.554 8.037,-6.567 12.078,-13.507 12.078,-20.838" /></clipPath><clipPath
   id="clipPath186"
   clipPathUnits="userSpaceOnUse"><path
     id="path184"
     d="m 120.807,354.118 h 162 V 154.409 h -162 z" /></clipPath><clipPath
   id="clipPath190"
   clipPathUnits="userSpaceOnUse"><path
     id="path188"
     d="M 102.546,183.934 H 409.455 V 45.5856 H 102.546 Z" /></clipPath><clipPath
   id="clipPath194"
   clipPathUnits="userSpaceOnUse"><path
     id="path192"
     d="m 409.455,183.935 v -17.366 c 0,-20.838 -4.419,-38.882 -13.257,-54.119 -8.838,-15.254 -20.322,-27.786 -34.461,-37.634 -14.13,-9.837 -30.15,-17.168 -48.006,-21.998 -17.874,-4.813 -35.847,-7.232 -53.901,-7.232 -36.135,0 -66.474,6.567 -91.017,19.676 C 144.27,78.38 122.184,98.26 102.546,124.886 V 142.25 C 122.184,115.625 144.27,95.744 168.813,82.627 193.356,69.519 223.695,62.95 259.83,62.95 c 18.054,0 36.027,2.42 53.901,7.233 17.856,4.831 33.876,12.161 48.006,21.999 14.139,9.846 25.623,22.38 34.461,37.633 8.838,15.236 13.257,33.282 13.257,54.12" /></clipPath><clipPath
   id="clipPath198"
   clipPathUnits="userSpaceOnUse"><path
     id="path196"
     d="M 102.546,183.934 H 409.455 V 45.5856 H 102.546 Z" /></clipPath><clipPath
   id="clipPath314"
   clipPathUnits="userSpaceOnUse"><path
     id="path312"
     d="M 102.546,386.54 H 409.455 V 45.5856 H 102.546 Z" /></clipPath><clipPath
   id="clipPath318"
   clipPathUnits="userSpaceOnUse"><path
     id="path316"
     d="M 246.276,386.54 H 373.203 V 325.36 H 246.276 Z" /></clipPath><clipPath
   id="clipPath322"
   clipPathUnits="userSpaceOnUse"><path
     id="path320"
     d="m 120.807,354.118 h 162 V 154.409 h -162 z" /></clipPath><clipPath
   id="clipPath326"
   clipPathUnits="userSpaceOnUse"><path
     id="path324"
     d="M 102.546,183.934 H 409.455 V 45.5856 H 102.546 Z" /></clipPath><clipPath
   clipPathUnits="userSpaceOnUse"
   id="clipPath4"><g
     id="g5"><path
       id="path4"
       d="M 0,512 H 512 V 0 H 0 Z" /></g></clipPath></defs><g
     inkscape:groupmode="layer"
     id="layer6"
     inkscape:label="Square"><rect
       style="fill:#e5e5e5;fill-opacity:1;stroke-width:0.600001;stroke-linecap:round;paint-order:markers stroke fill"
       id="rect1"
       width="79.375"
       height="79.375"
       x="0"
       y="0" /><g
       id="g104"
       transform="matrix(0.08829116,0,0,-0.08829116,16.864241,62.069324)"><g
         id="g106" /><g
         id="g150"><g
           id="g148"
           clip-path="url(#clipPath110)"><g
             id="g130"><g
               id="g124" /><g
               id="g128"><g
                 id="g126"
                 clip-path="url(#clipPath114)" /></g></g><g
             id="g138"><g
               id="g132" /><g
               id="g136"><g
                 id="g134"
                 clip-path="url(#clipPath118)" /></g></g><g
             id="g146"><g
               id="g140" /><g
               id="g144"><g
                 id="g142"
                 clip-path="url(#clipPath122)" /></g></g></g></g></g><g
       transform="matrix(0.08829116,0,0,-0.08829116,53.799347,38.444455)"
       id="g152"
       clip-path="none"
       style="fill:#0d0d26;fill-opacity:1"><path
         id="path154"
         style="fill:#0d0d26;fill-opacity:1;fill-rule:nonzero;stroke:none"
         d="m 0,0 c 24.609,-29.336 33.766,-82.712 30.257,-110.404 -5.233,-41.305 -24.001,-80.79 -54.954,-104.082 -32.207,-24.237 -71.602,-38.584 -120.772,-41.895 -73.969,-4.966 -131.493,18.596 -169.745,54.265 -19.605,18.306 -50.392,44.586 -37.277,81.881 6.751,19.193 31.542,42.915 47.573,59.33 5.757,5.896 17.093,16.817 15.857,23.968 -2.838,12.112 -21.413,30.319 -29.265,43.236 -23.539,36.903 -28.797,92.983 -8.08,139.589 24.702,55.552 86.858,90.859 171.85,87.812 35.186,-1.262 78.051,-12.854 107.51,-29.798 C -4.964,179.717 29.286,151.815 24.961,121.086 22.303,102.205 8.273,81.237 -8.325,61.018 -18.62,48.477 -23.401,40.817 -22.809,33.458 -22.305,27.213 -7.092,8.454 0,0" /></g><g
       id="g158"
       style="fill:#cccccc;fill-opacity:1;stroke:none;stroke-opacity:1"
       transform="matrix(0.08829116,0,0,-0.08829116,16.864186,62.069355)" /><g
       id="g202"
       transform="matrix(0.08829116,0,0,-0.08829116,52.806449,26.868473)"
       style="fill:#e5e5e5;fill-opacity:1;stroke:none;stroke-width:4.53046;stroke-dasharray:none;stroke-opacity:1"
       clip-path="none"><path
         id="path200"
         style="fill:#e5e5e5;fill-opacity:1;fill-rule:nonzero;stroke:none;stroke-width:4.53046;stroke-dasharray:none;stroke-opacity:1"
         d="m 0,0 v -17.365 l -33.885,-51.406 v 17.364 z" /></g><g
       id="g242"
       style="fill:#e5e5e5;fill-opacity:1;stroke:none;stroke-width:4.53046;stroke-dasharray:none;stroke-opacity:1"
       transform="matrix(0.08829116,0,0,-0.08829116,16.864186,62.069355)"
       clip-path="none"><g
         id="g204"
         style="fill:#e5e5e5;fill-opacity:1;stroke:none;stroke-width:4.53046;stroke-dasharray:none;stroke-opacity:1" /><g
         id="g240"
         style="fill:#e5e5e5;fill-opacity:1;stroke:none;stroke-width:4.53046;stroke-dasharray:none;stroke-opacity:1"><g
           id="g238"
           clip-path="url(#clipPath166)"
           style="fill:#e5e5e5;fill-opacity:1;stroke:none;stroke-width:4.53046;stroke-dasharray:none;stroke-opacity:1"><g
             id="g236"
             style="fill:#e5e5e5;fill-opacity:1;stroke:none;stroke-width:4.53046;stroke-dasharray:none;stroke-opacity:1"><g
               id="g234"
               clip-path="url(#clipPath170)"
               style="fill:#e5e5e5;fill-opacity:1;stroke:none;stroke-width:4.53046;stroke-dasharray:none;stroke-opacity:1"><g
                 id="g232"
                 style="fill:#e5e5e5;fill-opacity:1;stroke:none;stroke-width:4.53046;stroke-dasharray:none;stroke-opacity:1"><g
                   id="g206"
                   style="fill:#e5e5e5;fill-opacity:1;stroke:none;stroke-width:4.53046;stroke-dasharray:none;stroke-opacity:1" /><g
                   id="g230"
                   style="fill:#e5e5e5;fill-opacity:1;stroke:none;stroke-width:4.53046;stroke-dasharray:none;stroke-opacity:1"><g
                     id="g228"
                     clip-path="url(#clipPath174)"
                     style="fill:#e5e5e5;fill-opacity:1;stroke:none;stroke-width:4.53046;stroke-dasharray:none;stroke-opacity:1"><g
                       id="g210"
                       transform="translate(373.2031,347.2842)"
                       style="fill:#e5e5e5;fill-opacity:1;stroke:none;stroke-width:4.53046;stroke-dasharray:none;stroke-opacity:1"><path
                         id="path208"
                         style="fill:#e5e5e5;fill-opacity:1;fill-rule:nonzero;stroke:none;stroke-width:4.53046;stroke-dasharray:none;stroke-opacity:1"
                         d="m 0,0 v -17.365 c -0.539,-0.817 -1.159,-1.529 -1.84,-2.13 V -2.13 C -1.159,-1.529 -0.539,-0.817 0,0" /></g><g
                       id="g214"
                       transform="translate(371.3633,345.1538)"
                       style="fill:#e5e5e5;fill-opacity:1;stroke:none;stroke-width:4.53046;stroke-dasharray:none;stroke-opacity:1"><path
                         id="path212"
                         style="fill:#e5e5e5;fill-opacity:1;fill-rule:nonzero;stroke:none;stroke-width:4.53046;stroke-dasharray:none;stroke-opacity:1"
                         d="m 0,0 v -17.365 c -1.812,-1.6 -4.056,-2.428 -6.342,-2.428 -1.424,0 -2.865,0.32 -4.228,0.976 v 17.365 c 1.363,-0.655 2.804,-0.977 4.228,-0.977 2.286,0 4.53,0.828 6.342,2.429" /></g><g
                       id="g218"
                       transform="translate(360.793,343.7017)"
                       style="fill:#e5e5e5;fill-opacity:1;stroke:none;stroke-width:4.53046;stroke-dasharray:none;stroke-opacity:1"><path
                         id="path216"
                         style="fill:#e5e5e5;fill-opacity:1;fill-rule:nonzero;stroke:none;stroke-width:4.53046;stroke-dasharray:none;stroke-opacity:1"
                         d="m 0,0 v -17.365 c -0.812,0.39 -1.595,0.898 -2.332,1.527 -0.426,0.362 -8.514,7.25 -17.937,13.241 -8.893,5.639 -17.619,10.503 -26.161,14.608 v 17.365 c 8.542,-4.105 17.268,-8.97 26.161,-14.608 C -10.846,8.776 -2.758,1.889 -2.332,1.526 -1.595,0.897 -0.812,0.39 0,0" /></g><g
                       id="g222"
                       transform="translate(314.3633,373.0776)"
                       style="fill:#e5e5e5;fill-opacity:1;stroke:none;stroke-width:4.53046;stroke-dasharray:none;stroke-opacity:1"><path
                         id="path220"
                         style="fill:#e5e5e5;fill-opacity:1;fill-rule:nonzero;stroke:none;stroke-width:4.53046;stroke-dasharray:none;stroke-opacity:1"
                         d="m 0,0 v -17.365 c -0.508,0.245 -1.016,0.487 -1.523,0.725 -9.037,4.237 -17.478,7.428 -25.335,9.546 -7.857,2.118 -14.724,3.191 -20.611,3.191 -6.518,0 -11.455,-1.475 -14.796,-4.426 V 9.036 c 3.341,2.951 8.278,4.426 14.796,4.426 5.887,0 12.754,-1.072 20.611,-3.191 C -19.001,8.153 -10.56,4.962 -1.523,0.726 -1.016,0.486 -0.508,0.245 0,0" /></g><g
                       id="g226"
                       transform="translate(252.0986,382.1138)"
                       style="fill:#e5e5e5;fill-opacity:1;stroke:none;stroke-width:4.53046;stroke-dasharray:none;stroke-opacity:1"><path
                         id="path224"
                         style="fill:#e5e5e5;fill-opacity:1;fill-rule:nonzero;stroke:none;stroke-width:4.53046;stroke-dasharray:none;stroke-opacity:1"
                         d="m 0,0 v -17.365 c -0.285,-0.251 -0.557,-0.513 -0.819,-0.786 -3.339,-3.474 -5.004,-7.906 -5.004,-13.312 v 17.364 c 0,5.407 1.665,9.839 5.004,13.313 C -0.557,-0.513 -0.285,-0.251 0,0" /></g></g></g></g></g></g></g></g></g><g
       id="g266"
       style="fill:#e5e5e5;fill-opacity:1;stroke:none;stroke-width:4.53046;stroke-dasharray:none;stroke-opacity:1"
       transform="matrix(0.08829116,0,0,-0.08829116,16.864186,62.069355)"
       clip-path="none"><g
         id="g244"
         style="fill:#e5e5e5;fill-opacity:1;stroke:none;stroke-width:4.53046;stroke-dasharray:none;stroke-opacity:1" /><g
         id="g264"
         style="fill:#e5e5e5;fill-opacity:1;stroke:none;stroke-width:4.53046;stroke-dasharray:none;stroke-opacity:1"><g
           id="g262"
           clip-path="url(#clipPath178)"
           style="fill:#e5e5e5;fill-opacity:1;stroke:none;stroke-width:4.53046;stroke-dasharray:none;stroke-opacity:1"><g
             id="g260"
             style="fill:#e5e5e5;fill-opacity:1;stroke:none;stroke-width:4.53046;stroke-dasharray:none;stroke-opacity:1"><g
               id="g258"
               clip-path="url(#clipPath182)"
               style="fill:#e5e5e5;fill-opacity:1;stroke:none;stroke-width:4.53046;stroke-dasharray:none;stroke-opacity:1"><g
                 id="g256"
                 style="fill:#e5e5e5;fill-opacity:1;stroke:none;stroke-width:4.53046;stroke-dasharray:none;stroke-opacity:1"><g
                   id="g246"
                   style="fill:#e5e5e5;fill-opacity:1;stroke:none;stroke-width:4.53046;stroke-dasharray:none;stroke-opacity:1" /><g
                   id="g254"
                   style="fill:#e5e5e5;fill-opacity:1;stroke:none;stroke-width:4.53046;stroke-dasharray:none;stroke-opacity:1"><g
                     id="g252"
                     clip-path="url(#clipPath186)"
                     style="fill:#e5e5e5;fill-opacity:1;stroke:none;stroke-width:4.53046;stroke-dasharray:none;stroke-opacity:1"><g
                       id="g250"
                       transform="translate(282.8066,171.7734)"
                       style="fill:#e5e5e5;fill-opacity:1;stroke:none;stroke-width:4.53046;stroke-dasharray:none;stroke-opacity:1"><path
                         id="path248"
                         style="fill:#e5e5e5;fill-opacity:1;fill-rule:nonzero;stroke:none;stroke-width:4.53046;stroke-dasharray:none;stroke-opacity:1"
                         d="m 0,0 v -17.364 c 0,7.33 -4.041,14.269 -12.078,20.837 -8.055,6.559 -18.071,13.401 -30.05,20.554 -11.979,7.135 -24.94,14.846 -38.881,23.16 -13.986,8.332 -27.027,18.125 -38.871,29.222 -11.988,11.185 -21.995,24.028 -30.051,38.493 -8.046,14.473 -12.069,31.163 -12.069,50.077 v 17.365 c 0,-18.914 4.023,-35.603 12.069,-50.077 8.056,-14.465 18.063,-27.308 30.051,-38.494 11.844,-11.096 24.885,-20.89 38.871,-29.221 13.941,-8.315 26.902,-16.026 38.881,-23.16 11.979,-7.153 21.995,-13.996 30.05,-20.554 C -4.041,14.271 0,7.33 0,0" /></g></g></g></g></g></g></g></g></g><g
       id="g298"
       style="fill:#e5e5e5;fill-opacity:1;stroke:none;stroke-width:4.53046;stroke-dasharray:none;stroke-opacity:1"
       transform="matrix(0.08829116,0,0,-0.08829116,16.864186,62.069355)"
       clip-path="none"><g
         id="g268"
         style="fill:#e5e5e5;fill-opacity:1;stroke:none;stroke-width:4.53046;stroke-dasharray:none;stroke-opacity:1" /><g
         id="g296"
         style="fill:#e5e5e5;fill-opacity:1;stroke:none;stroke-width:4.53046;stroke-dasharray:none;stroke-opacity:1"><g
           id="g294"
           clip-path="url(#clipPath190)"
           style="fill:#e5e5e5;fill-opacity:1;stroke:none;stroke-width:4.53046;stroke-dasharray:none;stroke-opacity:1"><g
             id="g292"
             style="fill:#e5e5e5;fill-opacity:1;stroke:none;stroke-width:4.53046;stroke-dasharray:none;stroke-opacity:1"><g
               id="g290"
               clip-path="url(#clipPath194)"
               style="fill:#e5e5e5;fill-opacity:1;stroke:none;stroke-width:4.53046;stroke-dasharray:none;stroke-opacity:1"><g
                 id="g288"
                 style="fill:#e5e5e5;fill-opacity:1;stroke:none;stroke-width:4.53046;stroke-dasharray:none;stroke-opacity:1"><g
                   id="g270"
                   style="fill:#e5e5e5;fill-opacity:1;stroke:none;stroke-width:4.53046;stroke-dasharray:none;stroke-opacity:1" /><g
                   id="g286"
                   style="fill:#e5e5e5;fill-opacity:1;stroke:none;stroke-width:4.53046;stroke-dasharray:none;stroke-opacity:1"><g
                     id="g284"
                     clip-path="url(#clipPath198)"
                     style="fill:#e5e5e5;fill-opacity:1;stroke:none;stroke-width:4.53046;stroke-dasharray:none;stroke-opacity:1"><g
                       id="g274"
                       transform="translate(409.4551,183.9346)"
                       style="fill:#e5e5e5;fill-opacity:1;stroke:none;stroke-width:4.53046;stroke-dasharray:none;stroke-opacity:1"><path
                         id="path272"
                         style="fill:#e5e5e5;fill-opacity:1;fill-rule:nonzero;stroke:none;stroke-width:4.53046;stroke-dasharray:none;stroke-opacity:1"
                         d="m 0,0 v -17.365 c 0,-20.838 -4.419,-38.883 -13.257,-54.119 -6.514,-11.243 -14.465,-21.007 -23.857,-29.307 v 17.364 c 9.392,8.301 17.343,18.065 23.857,29.308 C -4.419,-38.884 0,-20.838 0,0" /></g><g
                       id="g278"
                       transform="translate(372.3408,100.5078)"
                       style="fill:#e5e5e5;fill-opacity:1;stroke:none;stroke-width:4.53046;stroke-dasharray:none;stroke-opacity:1"><path
                         id="path276"
                         style="fill:#e5e5e5;fill-opacity:1;fill-rule:nonzero;stroke:none;stroke-width:4.53046;stroke-dasharray:none;stroke-opacity:1"
                         d="m 0,0 v -17.364 c -3.351,-2.962 -6.886,-5.738 -10.604,-8.327 -14.129,-9.838 -30.15,-17.168 -48.005,-21.998 -17.874,-4.814 -35.848,-7.233 -53.902,-7.233 -33.585,0 -62.162,5.673 -85.734,16.998 v 17.365 c 23.572,-11.325 52.149,-16.999 85.734,-16.999 18.054,0 36.028,2.42 53.902,7.233 17.855,4.831 33.876,12.161 48.005,21.999 C -6.886,-5.736 -3.351,-2.962 0,0" /></g><g
                       id="g282"
                       transform="translate(174.0962,79.9492)"
                       style="fill:#e5e5e5;fill-opacity:1;stroke:none;stroke-width:4.53046;stroke-dasharray:none;stroke-opacity:1"><path
                         id="path280"
                         style="fill:#e5e5e5;fill-opacity:1;fill-rule:nonzero;stroke:none;stroke-width:4.53046;stroke-dasharray:none;stroke-opacity:1"
                         d="m 0,0 v -17.365 c -1.79,0.86 -3.551,1.753 -5.283,2.677 -24.543,13.119 -46.629,32.999 -66.267,59.625 V 62.301 C -51.912,35.676 -29.826,15.795 -5.283,2.678 -3.551,1.753 -1.79,0.86 0,0" /></g></g></g></g></g></g></g></g></g><path
       id="path300"
       style="fill:#e5e5e5;fill-opacity:1;fill-rule:nonzero;stroke:#0d0d26;stroke-width:0.4;stroke-dasharray:none;stroke-opacity:1"
       d="m 39.07622,20.888989 c 2.773225,0 5.261182,0.503171 7.463075,1.508013 2.201893,1.005548 4.290951,2.496344 6.267172,4.471506 l -2.991746,4.538695 c -0.174022,0.264167 -0.444546,0.40252 -0.722399,0.40252 -0.200421,0 -0.404726,-0.07205 -0.57919,-0.220905 -0.03761,-0.03205 -0.751711,-0.640111 -1.583678,-1.169151 -0.832056,-0.527452 -1.647248,-0.978178 -2.444253,-1.353857 -0.797799,-0.374001 -1.543153,-0.655739 -2.236856,-0.842739 -0.693704,-0.187089 -1.299999,-0.281737 -1.819769,-0.281737 -0.624484,0 -1.084569,0.153361 -1.378578,0.460085 -0.294805,0.306812 -0.441809,0.698118 -0.441809,1.17542 0,0.612741 0.355195,1.184073 1.066292,1.712231 0.709596,0.528246 1.602838,1.072825 2.677871,1.635505 1.163412,0.611151 2.317201,1.241197 3.459071,1.890667 1.230072,0.698824 2.382978,1.542358 3.458188,2.529983 1.075121,0.989126 1.968275,2.17311 2.67946,3.552748 0.710391,1.379638 1.066381,3.023796 1.066381,4.931591 0,1.839811 -0.390159,3.433114 -1.170476,4.778229 -0.780317,1.346794 -1.794253,2.453347 -3.042602,3.32275 -1.247554,0.868608 -2.661978,1.515783 -4.238505,1.942317 -1.578116,0.424857 -3.164973,0.638522 -4.758982,0.638522 -3.190401,0 -5.869067,-0.579896 -8.035997,-1.737217 -2.16693,-1.158203 -4.116928,-2.913432 -5.85079,-5.264184 l 3.694985,-4.593612 c 0.176936,-0.21958 0.417352,-0.330298 0.659094,-0.330298 0.226025,0 0.453198,0.09686 0.630575,0.291979 0.02119,0.02331 0.424327,0.466354 1.152994,1.029034 0.737408,0.56886 1.530439,1.064968 2.36638,1.481349 0.835146,0.42106 1.704461,0.771576 2.599998,1.047839 0.884413,0.27388 1.707639,0.40923 2.470475,0.40923 0.762041,0 1.343703,-0.136145 1.742603,-0.40923 0.398105,-0.272378 0.598261,-0.783319 0.598261,-1.532999 0,-0.647174 -0.356785,-1.259915 -1.066381,-1.839811 -0.711097,-0.579014 -1.59551,-1.18319 -2.653149,-1.814737 -1.05764,-0.629869 -2.201894,-1.310682 -3.432761,-2.044823 -1.23484,-0.735554 -2.386245,-1.600277 -3.431965,-2.579956 -1.058435,-0.987625 -1.942053,-2.121548 -2.653238,-3.39868 -0.710391,-1.277926 -1.065586,-2.751417 -1.065586,-4.421356 0,-1.635594 0.311491,-3.066087 0.936063,-4.292275 0.623777,-1.227071 1.464485,-2.256899 2.522125,-3.092663 1.05764,-0.834175 2.279766,-1.464132 3.666379,-1.890578 1.386613,-0.42574 2.860633,-0.639405 4.421268,-0.639405" /><g
       id="g308"
       transform="matrix(0.08829116,0,0,-0.08829116,16.864241,62.069324)"><g
         id="g310" /><g
         id="g354"><g
           id="g352"
           clip-path="url(#clipPath314)"><g
             id="g334"><g
               id="g328" /><g
               id="g332"><g
                 id="g330"
                 clip-path="url(#clipPath318)" /></g></g><g
             id="g342"><g
               id="g336" /><g
               id="g340"><g
                 id="g338"
                 clip-path="url(#clipPath322)" /></g></g><g
             id="g350"><g
               id="g344" /><g
               id="g348"><g
                 id="g346"
                 clip-path="url(#clipPath326)" /></g></g></g></g></g></g><g
     inkscape:label="artwork"
     inkscape:groupmode="layer"
     id="layer1" /></svg>
