<?xml version="1.0" encoding="UTF-8" standalone="no"?>
<!-- Created with Inkscape (http://www.inkscape.org/) -->

<svg
   width="300"
   height="300"
   viewBox="0 0 79.374998 79.375"
   version="1.1"
   id="svg1"
   sodipodi:docname="wsc.svg"
   inkscape:version="1.3.2 (1:1.3.2+202311252150+091e20ef0f)"
   inkscape:export-filename="../../icons/wsc.png"
   inkscape:export-xdpi="96"
   inkscape:export-ydpi="96"
   xml:space="preserve"
   xmlns:inkscape="http://www.inkscape.org/namespaces/inkscape"
   xmlns:sodipodi="http://sodipodi.sourceforge.net/DTD/sodipodi-0.dtd"
   xmlns="http://www.w3.org/2000/svg"
   xmlns:svg="http://www.w3.org/2000/svg"><sodipodi:namedview
     id="namedview1"
     pagecolor="#505050"
     bordercolor="#eeeeee"
     borderopacity="1"
     inkscape:showpageshadow="0"
     inkscape:pageopacity="0"
     inkscape:pagecheckerboard="0"
     inkscape:deskcolor="#505050"
     inkscape:document-units="mm"
     inkscape:zoom="2.297278"
     inkscape:cx="130.15403"
     inkscape:cy="167.37199"
     inkscape:window-width="1920"
     inkscape:window-height="1131"
     inkscape:window-x="0"
     inkscape:window-y="0"
     inkscape:window-maximized="1"
     inkscape:current-layer="layer6"
     showguides="true"
     showgrid="false"><sodipodi:guide
       position="23.505136,76.729168"
       orientation="0,-1"
       id="guide4"
       inkscape:locked="false" /><sodipodi:guide
       position="2.645832,58.232189"
       orientation="1,0"
       id="guide5"
       inkscape:locked="false" /><sodipodi:guide
       position="30.237762,2.6458321"
       orientation="0,-1"
       id="guide6"
       inkscape:locked="false" /><sodipodi:guide
       position="76.729166,25.513984"
       orientation="1,0"
       id="guide7"
       inkscape:locked="false" /></sodipodi:namedview><defs
     id="defs1">
		
		
	
	

			
			
				
			
			
			
			
			
			
			
			
			
			
			
			
			
			
		</defs><g
     inkscape:groupmode="layer"
     id="layer5"
     inkscape:label="palette"
     sodipodi:insensitive="true"><rect
       style="fill:#35a52f;fill-opacity:1;stroke-width:0.600001;stroke-linecap:round;paint-order:markers stroke fill"
       id="rect2"
       width="39.666763"
       height="39.666763"
       x="79.375"
       y="-48.294159" /><rect
       style="fill:#edb111;fill-opacity:1;stroke-width:0.600001;stroke-linecap:round;paint-order:markers stroke fill"
       id="rect2-2"
       width="39.666763"
       height="39.666763"
       x="127.71326"
       y="-48.294159" /><rect
       style="fill:#7761ab;fill-opacity:1;stroke-width:0.600001;stroke-linecap:round;paint-order:markers stroke fill"
       id="rect2-2-7"
       width="39.666763"
       height="39.666763"
       x="176.05151"
       y="-48.294159" /><rect
       style="fill:#f8f4f2;fill-opacity:1;stroke-width:0.600001;stroke-linecap:round;paint-order:markers stroke fill"
       id="rect2-2-7-6"
       width="39.666763"
       height="39.666763"
       x="224.38977"
       y="-48.294159" /><rect
       style="fill:#006fcd;fill-opacity:1;stroke-width:0.600001;stroke-linecap:round;paint-order:markers stroke fill"
       id="rect2-2-7-6-7"
       width="39.666763"
       height="39.666763"
       x="272.72797"
       y="-48.294159" /><rect
       style="fill:#b1b3b3;fill-opacity:1;stroke-width:0.600001;stroke-linecap:round;paint-order:markers stroke fill"
       id="rect2-2-7-6-7-4"
       width="39.666763"
       height="39.666763"
       x="321.06622"
       y="-48.294159" /><rect
       style="fill:#323434;fill-opacity:1;stroke-width:0.600001;stroke-linecap:round;paint-order:markers stroke fill"
       id="rect2-2-7-6-7-4-0"
       width="39.666763"
       height="39.666763"
       x="369.40448"
       y="-48.294159" /><text
       xml:space="preserve"
       style="font-size:8.46667px;line-height:1.6;font-family:Roboto;-inkscape-font-specification:Roboto;text-decoration-color:#000000;letter-spacing:0px;word-spacing:0px;fill:#808080;stroke-width:0.600001;stroke-linecap:round;paint-order:markers stroke fill"
       x="99.243523"
       y="-1.7652676"
       id="text2"><tspan
         sodipodi:role="line"
         id="tspan2"
         style="text-align:center;text-anchor:middle;stroke-width:0.6"
         x="99.243523"
         y="-1.7652676">GB green</tspan></text><text
       xml:space="preserve"
       style="font-size:8.46667px;line-height:1.6;font-family:Roboto;-inkscape-font-specification:Roboto;text-align:center;text-decoration-color:#000000;letter-spacing:0px;word-spacing:0px;text-anchor:middle;fill:#808080;stroke-width:0.600001;stroke-linecap:round;paint-order:markers stroke fill"
       x="147.39368"
       y="-1.7652676"
       id="text2-1"><tspan
         sodipodi:role="line"
         id="tspan2-8"
         style="text-align:center;text-anchor:middle;stroke-width:0.6"
         x="147.39368"
         y="-1.7652676">GBC Yellow</tspan></text><text
       xml:space="preserve"
       style="font-size:8.46667px;line-height:1.6;font-family:Roboto;-inkscape-font-specification:Roboto;text-align:center;text-decoration-color:#000000;letter-spacing:0px;word-spacing:0px;text-anchor:middle;fill:#808080;stroke-width:0.600001;stroke-linecap:round;paint-order:markers stroke fill"
       x="195.73193"
       y="-1.7652676"
       id="text2-1-0"><tspan
         sodipodi:role="line"
         id="tspan2-8-2"
         style="text-align:center;text-anchor:middle;stroke-width:0.6"
         x="195.73193"
         y="-1.7652676">GBA Purple</tspan></text><text
       xml:space="preserve"
       style="font-size:8.46667px;line-height:1.6;font-family:Roboto;-inkscape-font-specification:Roboto;text-align:center;text-decoration-color:#000000;letter-spacing:0px;word-spacing:0px;text-anchor:middle;fill:#808080;stroke-width:0.600001;stroke-linecap:round;paint-order:markers stroke fill"
       x="243.74771"
       y="-1.7652676"
       id="text2-1-0-9"><tspan
         sodipodi:role="line"
         id="tspan2-8-2-2"
         style="text-align:center;text-anchor:middle;stroke-width:0.6"
         x="243.74771"
         y="-1.7652676">DS White</tspan></text><text
       xml:space="preserve"
       style="font-size:8.46667px;line-height:1.6;font-family:Roboto;-inkscape-font-specification:Roboto;text-align:center;text-decoration-color:#000000;letter-spacing:0px;word-spacing:0px;text-anchor:middle;fill:#808080;stroke-width:0.600001;stroke-linecap:round;paint-order:markers stroke fill"
       x="292.36707"
       y="-1.7652676"
       id="text2-1-0-9-2"><tspan
         sodipodi:role="line"
         id="tspan2-8-2-2-9"
         style="text-align:center;text-anchor:middle;stroke-width:0.6"
         x="292.36707"
         y="-1.7652676">PSP Blue</tspan></text><text
       xml:space="preserve"
       style="font-size:8.46667px;line-height:1.6;font-family:Roboto;-inkscape-font-specification:Roboto;text-align:center;text-decoration-color:#000000;letter-spacing:0px;word-spacing:0px;text-anchor:middle;fill:#808080;stroke-width:0.600001;stroke-linecap:round;paint-order:markers stroke fill"
       x="340.70532"
       y="-1.682586"
       id="text2-1-0-9-2-5"><tspan
         sodipodi:role="line"
         id="tspan2-8-2-2-9-0"
         style="text-align:center;text-anchor:middle;stroke-width:0.6"
         x="340.70532"
         y="-1.682586">PS Grey</tspan></text><text
       xml:space="preserve"
       style="font-size:8.46667px;line-height:1.6;font-family:Roboto;-inkscape-font-specification:Roboto;text-align:center;text-decoration-color:#000000;letter-spacing:0px;word-spacing:0px;text-anchor:middle;fill:#808080;stroke-width:0.600001;stroke-linecap:round;paint-order:markers stroke fill"
       x="388.94019"
       y="-1.682586"
       id="text2-1-0-9-2-5-8"><tspan
         sodipodi:role="line"
         id="tspan2-8-2-2-9-0-8"
         style="text-align:center;text-anchor:middle;stroke-width:0.6"
         x="388.94019"
         y="-1.682586">Default grey</tspan></text></g><g
     inkscape:groupmode="layer"
     id="layer6"
     inkscape:label="Square"><rect
       style="opacity:1;fill:#e5e5e5;fill-opacity:1;stroke-width:0.600001;stroke-linecap:round;paint-order:markers stroke fill"
       id="rect1"
       width="79.375"
       height="79.375"
       x="0"
       y="0" /><g
       id="g2"
       transform="translate(-0.0032955,13.115823)"><path
         id="path1"
         style="fill:#0d0d26;fill-opacity:1;stroke:none;stroke-width:0.0130424;stroke-opacity:1"
         class="st0"
         d="m 38.054525,10.492823 c -2.519928,-0.01218 -4.720566,0.835585 -6.006869,2.25981 -0.83471,0.927311 -3.688298,6.239579 4.229716,11.225671 -4.118777,1.218156 -7.460526,-3.520198 -7.460526,-3.520198 5.142602,9.775244 15.077258,10.077924 18.507397,6.278686 0.836015,-0.927311 3.689334,-6.239579 -4.228682,-11.225671 4.118778,-1.215547 7.458976,3.521749 7.458976,3.521749 -3.214126,-6.110344 -8.300132,-8.519745 -12.500012,-8.540047 z m -0.132809,4.049882 c 1.473263,0.06892 3.153799,0.781715 4.587317,2.075842 2.504216,2.260715 3.318936,5.449806 1.866553,7.19956 a 3.4315212,2.3255045 42.07366 0 0 -1.063501,-3.935677 3.4315212,2.3255045 42.07366 0 0 -4.105693,-0.573091 3.4315212,2.3255045 42.07366 0 0 0.989087,4.025594 3.4315212,2.3255045 42.07366 0 0 4.102592,0.575675 c -1.558561,1.726807 -4.886728,1.262492 -7.435205,-1.038179 -2.547171,-2.300671 -3.348116,-5.565254 -1.789555,-7.292062 0.681871,-0.755478 1.702534,-1.091263 2.848405,-1.037662 z" /><path
         class="st2"
         d="m 28.737895,32.639351 -0.901017,3.298463 C 27.634017,36.67549 26.54858,36.530589 26.54858,35.763934 V 34.63371 c 0,-1.117052 -1.261952,-1.248779 -1.261952,-1.248779 -2.721495,0 -4.468205,3.172004 -4.452398,4.831773 0,1.512235 0.790367,3.124583 2.837416,2.758379 1.33572,-0.237109 2.510731,-1.340988 2.510731,-1.340988 0.03425,-0.03425 0.0685,-0.0685 0.100113,-0.102748 0.629659,-0.642831 1.65977,0.134363 1.21453,0.916825 v 0 c -1.438467,2.252545 -9.869043,3.609341 -9.869043,-2.54498 0,-2.407983 2.660901,-7.10276 11.188955,-5.561545 z"
         id="path10"
         style="fill:#0d0d26;fill-opacity:1;stroke:none;stroke-width:1;stroke-dasharray:none;stroke-opacity:1;paint-order:stroke markers fill" /><path
         class="st0"
         d="m 44.002507,41.212193 -0.940536,0.68235 c -1.873169,1.182915 -4.607837,0.410991 -4.552511,-2.036511 0.0053,-0.26609 0.05533,-0.529545 0.123824,-0.787732 l 1.535946,-5.619506 c 0.1449,-0.534814 0.495296,-0.998496 0.990592,-1.248779 1.06436,-0.542718 1.831016,0.353031 1.654501,1.135494 l -1.549119,5.669562 c -0.61912,2.141893 0.547988,2.418521 1.056457,2.086567 l 1.206626,-0.877306 0.922094,0.01317 -0.102747,0.779829 z"
         id="path11"
         style="fill:#0d0d26;fill-opacity:1;stroke:none;stroke-width:1;stroke-dasharray:none;stroke-opacity:1;paint-order:stroke markers fill" /><path
         class="st3"
         d="m 56.585142,38.221973 0.313512,-1.148665 c 0.176515,-0.782463 -0.59014,-1.678212 -1.654501,-1.135494 -0.492661,0.250283 -0.843057,0.713965 -0.990592,1.248779 l -0.964247,3.540842 -0.06586,0.23711 c -0.252918,0.922095 0.458412,1.314643 1.167107,1.412122 0.993228,0.139631 1.190819,-0.326685 1.256683,-0.645466 0.02898,-0.136997 0.07113,-0.273994 0.139632,-0.397818 0.587505,-1.06436 1.41739,-1.989089 2.133989,-2.652997 0.563795,-0.521642 1.477986,-0.313512 1.751979,0.403087 l 0.09748,0.252917 c 0.155439,0.408356 0.74031,0.379376 0.85623,-0.04215 l 1.011669,-3.69628 c -1.456909,-0.181785 -3.353788,0.392548 -5.053076,2.624016 z"
         id="path12"
         style="fill:#0d0d26;fill-opacity:1;stroke:none;stroke-width:1;stroke-dasharray:none;stroke-opacity:1;paint-order:stroke markers fill" /><path
         class="st4"
         d="m 47.45114,35.247561 c 0.595409,-0.118555 0.97215,0.605948 0.540083,1.030111 -1.799401,1.762517 -2.181411,5.163728 -0.02371,5.163728 2.176143,0 2.755745,-4.178405 0.993228,-4.628913 -0.65337,-0.131728 -0.239745,-0.321416 -0.05533,-0.413626 1.583368,-0.803539 4.191577,-1.117051 4.109906,1.720365 -0.05269,1.762517 -2.19195,4.531434 -5.703812,4.531434 -2.315774,0 -3.893872,-1.333084 -3.893872,-3.282655 -0.0026,-1.68875 1.796766,-3.675204 4.033504,-4.120444 z"
         id="path13"
         style="fill:#0d0d26;fill-opacity:1;stroke:none;stroke-width:1;stroke-dasharray:none;stroke-opacity:1;paint-order:stroke markers fill" /><path
         class="st5"
         d="m 32.357774,35.247561 c 0.595409,-0.118555 0.972151,0.605948 0.540084,1.030111 -1.799401,1.762517 -2.181412,5.163728 -0.02371,5.163728 2.176142,0 2.755744,-4.178405 0.993227,-4.628913 -0.65337,-0.131728 -0.239744,-0.321416 -0.05533,-0.413626 1.583368,-0.803539 4.191577,-1.117051 4.109906,1.720365 -0.05269,1.762517 -2.19195,4.531434 -5.703811,4.531434 -2.315774,0 -3.893873,-1.333084 -3.893873,-3.282655 0,-1.68875 1.796767,-3.675204 4.033504,-4.120444 z"
         id="path14"
         style="fill:#0d0d26;fill-opacity:1;stroke:none;stroke-width:1;stroke-dasharray:none;stroke-opacity:1;paint-order:stroke markers fill" /><path
         class="st2"
         d="m 28.853286,32.53997 -0.901017,3.298463 c -0.202861,0.737676 -1.288298,0.592775 -1.288298,-0.17388 v -1.130224 c 0,-1.117052 -1.261952,-1.248779 -1.261952,-1.248779 -2.721495,0 -4.468205,3.172004 -4.452398,4.831773 0,1.512235 0.790367,3.124583 2.837416,2.758379 1.33572,-0.237109 2.510731,-1.340988 2.510731,-1.340988 0.03425,-0.03425 0.0685,-0.0685 0.100113,-0.102748 0.629659,-0.642831 1.65977,0.134363 1.21453,0.916825 v 0 c -1.438467,2.252545 -9.869043,3.609341 -9.869043,-2.54498 0,-2.407983 2.660901,-7.10276 11.188955,-5.561545 z"
         id="path10-2"
         style="fill:none;stroke:none;stroke-width:1;stroke-dasharray:none;stroke-opacity:1;paint-order:stroke markers fill" /><path
         class="st0"
         d="m 44.117898,41.112812 -0.940536,0.68235 c -1.873169,1.182915 -4.607837,0.410991 -4.552511,-2.036511 0.0053,-0.26609 0.05533,-0.529545 0.123824,-0.787732 l 1.535946,-5.619506 c 0.1449,-0.534814 0.495296,-0.998496 0.990592,-1.248779 1.06436,-0.542718 1.831016,0.353031 1.654501,1.135494 l -1.549119,5.669562 c -0.61912,2.141893 0.547988,2.418521 1.056457,2.086567 l 1.206626,-0.877306 0.922094,0.01317 -0.102747,0.779829 z"
         id="path11-2"
         style="fill:none;stroke:none;stroke-width:1;stroke-dasharray:none;stroke-opacity:1;paint-order:stroke markers fill" /><path
         class="st3"
         d="m 56.700533,38.122592 0.313512,-1.148665 c 0.176515,-0.782463 -0.59014,-1.678212 -1.654501,-1.135494 -0.492661,0.250283 -0.843057,0.713965 -0.990592,1.248779 l -0.964247,3.540842 -0.06586,0.23711 c -0.252918,0.922095 0.458412,1.314643 1.167107,1.412122 0.993228,0.139631 1.190819,-0.326685 1.256683,-0.645466 0.02898,-0.136997 0.07113,-0.273994 0.139632,-0.397818 0.587505,-1.06436 1.41739,-1.989089 2.133989,-2.652997 0.563795,-0.521642 1.477986,-0.313512 1.751979,0.403087 l 0.09748,0.252917 c 0.155439,0.408356 0.74031,0.379376 0.85623,-0.04215 l 1.011669,-3.69628 c -1.456909,-0.181785 -3.353788,0.392548 -5.053076,2.624016 z"
         id="path12-8"
         style="fill:none;stroke:none;stroke-width:1;stroke-dasharray:none;stroke-opacity:1;paint-order:stroke markers fill" /><path
         class="st4"
         d="m 47.566531,35.14818 c 0.595409,-0.118555 0.97215,0.605948 0.540083,1.030111 -1.799401,1.762517 -2.181411,5.163728 -0.02371,5.163728 2.176143,0 2.755745,-4.178405 0.993228,-4.628913 -0.65337,-0.131728 -0.239745,-0.321416 -0.05533,-0.413626 1.583368,-0.803539 4.191577,-1.117051 4.109906,1.720365 -0.05269,1.762517 -2.19195,4.531434 -5.703812,4.531434 -2.315774,0 -3.893872,-1.333084 -3.893872,-3.282655 -0.0026,-1.68875 1.796766,-3.675204 4.033504,-4.120444 z"
         id="path13-9"
         style="fill:none;stroke:none;stroke-width:1;stroke-dasharray:none;stroke-opacity:1;paint-order:stroke markers fill" /><path
         class="st5"
         d="m 32.473165,35.14818 c 0.595409,-0.118555 0.972151,0.605948 0.540084,1.030111 -1.799401,1.762517 -2.181412,5.163728 -0.02371,5.163728 2.176142,0 2.755744,-4.178405 0.993227,-4.628913 -0.65337,-0.131728 -0.239744,-0.321416 -0.05533,-0.413626 1.583368,-0.803539 4.191577,-1.117051 4.109906,1.720365 -0.05269,1.762517 -2.19195,4.531434 -5.703811,4.531434 -2.315774,0 -3.893873,-1.333084 -3.893873,-3.282655 0,-1.68875 1.796767,-3.675204 4.033504,-4.120444 z"
         id="path14-7"
         style="fill:none;stroke:none;stroke-width:1;stroke-dasharray:none;stroke-opacity:1;paint-order:stroke markers fill" /></g></g><g
     inkscape:label="artwork"
     inkscape:groupmode="layer"
     id="layer1" /></svg>
