<?xml version="1.0" encoding="UTF-8" standalone="no"?>
<svg
   height="48px"
   viewBox="0 -960 960 960"
   width="48px"
   fill="#ffffff"
   version="1.1"
   id="svg1"
   sodipodi:docname="updater.svg"
   inkscape:version="1.3.2 (1:1.3.2+202311252150+091e20ef0f)"
   xmlns:inkscape="http://www.inkscape.org/namespaces/inkscape"
   xmlns:sodipodi="http://sodipodi.sourceforge.net/DTD/sodipodi-0.dtd"
   xmlns="http://www.w3.org/2000/svg"
   xmlns:svg="http://www.w3.org/2000/svg">
  <defs
     id="defs1" />
  <sodipodi:namedview
     id="namedview1"
     pagecolor="#505050"
     bordercolor="#eeeeee"
     borderopacity="1"
     inkscape:showpageshadow="0"
     inkscape:pageopacity="0"
     inkscape:pagecheckerboard="0"
     inkscape:deskcolor="#505050"
     inkscape:zoom="15"
     inkscape:cx="24"
     inkscape:cy="24.033333"
     inkscape:window-width="1920"
     inkscape:window-height="1131"
     inkscape:window-x="0"
     inkscape:window-y="0"
     inkscape:window-maximized="1"
     inkscape:current-layer="svg1" />
  <path
     d="m 157,-176 q -22.8,0 -39.9,-17.1 Q 100,-210.2 100,-233 v -494 q 0,-22.8 17.1,-39.9 17.1,-17.1 39.9,-17.1 h 209 q 12.1125,0 20.311,8.246 8.189,8.2365 8.189,20.425 0,12.179 -8.189,20.254 Q 378.1125,-727 366,-727 H 157 v 494 H 803 V -727 H 594 q -12.1125,0 -20.3015,-8.246 -8.1985,-8.2365 -8.1985,-20.425 0,-12.179 8.1985,-20.254 Q 581.8875,-784 594,-784 h 209 q 22.8,0 39.9,17.1 17.1,17.1 17.1,39.9 v 494 q 0,22.8 -17.1,39.9 Q 825.8,-176 803,-176 Z M 451.5,-461.95 V -755.5 q 0,-12.1125 8.246,-20.311 8.2365,-8.189 20.425,-8.189 12.179,0 20.254,8.189 8.075,8.1985 8.075,20.311 v 293.55 l 100.7,-100.7 q 8.55,-8.55 19.95,-8.075 11.4,0.475 19.95,9.025 8.55,8.55 8.55,20.425 0,11.875 -8.55,20.425 L 499.95,-371.7 q -8.55,8.55 -19.95,8.55 -11.4,0 -19.95,-8.55 l -150.1,-150.1 q -8.55,-8.55 -8.075,-20.425 0.475,-11.875 9.025,-20.425 8.55,-8.55 20.425,-8.55 11.875,0 20.425,8.55 z"
     id="path1"
     style="fill:#e5e5e5;fill-opacity:1;stroke-width:0.95" />
</svg>
